<?xml version="1.0" standalone="no"?>
<!DOCTYPE svg PUBLIC "-//W3C//DTD SVG 20010904//EN"
 "http://www.w3.org/TR/2001/REC-SVG-20010904/DTD/svg10.dtd">
<svg version="1.0" xmlns="http://www.w3.org/2000/svg"
 width="536.000000pt" height="536.000000pt" viewBox="0 0 536.000000 536.000000"
 preserveAspectRatio="xMidYMid meet">
<metadata>
Created by potrace 1.11, written by Peter Selinger 2001-2013
</metadata>
<g transform="translate(0.000000,536.000000) scale(0.100000,-0.100000)"
fill="#000000" stroke="none">
<path d="M2699 5246 c-2 -2 -65 -7 -139 -10 -74 -4 -146 -8 -160 -10 -14 -2
-48 -7 -75 -10 -28 -4 -57 -9 -65 -11 -8 -2 -32 -6 -52 -9 -21 -3 -59 -11 -85
-17 -27 -6 -57 -13 -68 -15 -30 -5 -205 -60 -247 -77 -20 -8 -39 -13 -42 -9
-3 3 -6 1 -6 -5 0 -5 -6 -10 -13 -10 -7 0 -48 -16 -91 -36 -42 -20 -83 -37
-91 -37 -8 0 -15 -4 -15 -8 0 -5 -19 -16 -42 -27 -53 -23 -236 -133 -262 -157
-11 -10 -24 -18 -28 -18 -11 0 -187 -139 -252 -199 -94 -87 -180 -177 -256
-266 -75 -88 -220 -295 -220 -314 0 -5 -7 -16 -15 -24 -29 -30 -203 -397 -188
-397 3 0 0 -6 -6 -14 -11 -14 -86 -252 -94 -303 -3 -15 -10 -49 -16 -74 -10
-43 -13 -63 -26 -164 -19 -149 -22 -201 -19 -375 1 -107 5 -211 7 -230 17
-147 35 -242 74 -400 14 -58 30 -109 34 -115 5 -5 9 -16 9 -25 0 -35 166 -419
191 -440 3 -3 8 -13 12 -22 13 -37 156 -247 233 -343 84 -104 231 -258 323
-335 30 -25 59 -50 65 -55 26 -25 188 -138 271 -190 88 -55 326 -176 375 -190
14 -4 39 -13 55 -21 32 -14 180 -64 205 -69 8 -2 35 -9 60 -16 25 -7 50 -13
55 -14 6 0 35 -6 65 -13 49 -10 88 -17 170 -28 14 -1 34 -5 45 -7 53 -12 341
-24 351 -15 3 3 21 2 40 -2 18 -4 34 -5 34 -1 0 3 33 7 73 8 39 2 88 5 107 9
19 3 50 7 69 9 18 3 68 11 110 20 42 8 85 17 96 19 76 15 292 80 350 106 11 5
58 25 105 45 136 58 347 177 442 249 15 12 45 35 68 51 161 120 392 346 468
457 9 13 19 25 22 28 13 10 139 197 176 261 50 85 137 261 164 329 54 138 102
288 113 350 3 14 10 43 15 65 12 42 15 60 31 165 20 131 22 153 27 278 6 148
6 123 0 242 -37 686 -344 1329 -847 1775 -81 72 -103 90 -174 143 -38 28 -74
55 -80 60 -5 4 -50 33 -100 64 -152 94 -224 130 -460 228 -76 31 -282 90 -385
109 -30 6 -64 12 -76 15 -12 2 -45 7 -75 11 -30 3 -65 8 -79 10 -14 2 -74 7
-134 10 -60 3 -113 8 -116 10 -4 3 -9 3 -11 1z"/>
</g>
</svg>
