<?xml version="1.0" encoding="utf-8"?>
<!-- Generator: Adobe Illustrator 19.0.0, SVG Export Plug-In . SVG Version: 6.00 Build 0)  -->
<svg version="1.1" id="Layer_1" xmlns="http://www.w3.org/2000/svg" xmlns:xlink="http://www.w3.org/1999/xlink" x="0px" y="0px"
	 viewBox="207 66.9 1009 709" style="enable-background:new 207 66.9 1009 709;" xml:space="preserve">
<style type="text/css">
	.st0{filter:url(#Adobe_OpacityMaskFilter);}
	.st1{fill:url(#SVGID_1_);stroke:url(#SVGID_2_);stroke-miterlimit:10;}
	.st2{mask:url(#XMLID_4_);}
	.st3{fill:#FFFFFF;stroke:#202A37;stroke-miterlimit:10;}
	.st4{display:none;fill:#FFFFFF;stroke:#FFFFFF;stroke-miterlimit:10;}
	.st5{fill:#FFFFFF;stroke:#923E56;stroke-miterlimit:10;}
	.st6{fill:#FFFFFF;stroke:#F1DE35;stroke-miterlimit:10;}
	.st7{fill:#FFFFFF;stroke:#59A18F;stroke-miterlimit:10;}
	.st8{fill:#FFFFFF;}
</style>
<defs>
	<filter id="Adobe_OpacityMaskFilter" filterUnits="userSpaceOnUse" x="207" y="66.9" width="1009" height="709">
		<feColorMatrix  type="matrix" values="1 0 0 0 0  0 1 0 0 0  0 0 1 0 0  0 0 0 1 0"/>
	</filter>
</defs>
<mask maskUnits="userSpaceOnUse" x="207" y="66.9" width="1009" height="709" id="XMLID_4_">
	<g class="st0">
		
			<linearGradient id="SVGID_1_" gradientUnits="userSpaceOnUse" x1="820.7559" y1="634.4801" x2="1042.0066" y2="634.4801" gradientTransform="matrix(4.489659e-11 1 -1 4.489659e-11 1353.78 -443.22)">
			<stop  offset="0" style="stop-color:#FFFFFF"/>
			<stop  offset="1" style="stop-color:#000000"/>
		</linearGradient>
		
			<linearGradient id="SVGID_2_" gradientUnits="userSpaceOnUse" x1="467.61" y1="634.4801" x2="1190.1172" y2="634.4801" gradientTransform="matrix(4.489659e-11 1 -1 4.489659e-11 1353.78 -443.22)">
			<stop  offset="0" style="stop-color:#FFFFFF"/>
			<stop  offset="1" style="stop-color:#000000"/>
		</linearGradient>
		<rect x="183.8" y="24.9" class="st1" width="1071.1" height="721.5"/>
	</g>
</mask>
<g id="XMLID_2_" class="st2">
	<path id="XMLID_35_" class="st3" d="M1207.5,72.4c1.7,0,3,1.3,3,3v692c0,1.7-1.3,3-3,3h-992c-1.7,0-3-1.3-3-3v-692c0-1.7,1.3-3,3-3
		L1207.5,72.4 M1207.5,71.4h-992c-2.2,0-4,1.8-4,4v692c0,2.2,1.8,4,4,4h992c2.2,0,4-1.8,4-4v-692
		C1211.5,73.2,1209.7,71.4,1207.5,71.4L1207.5,71.4z"/>
	<path id="XMLID_32_" class="st4" d="M1207.5,68.4c3.9,0,7,3.1,7,7v692c0,3.9-3.1,7-7,7h-992c-3.9,0-7-3.1-7-7v-692c0-3.9,3.1-7,7-7
		L1207.5,68.4 M1207.5,67.4h-992c-4.4,0-8,3.6-8,8v692c0,4.4,3.6,8,8,8h992c4.4,0,8-3.6,8-8v-692C1215.5,71,1211.9,67.4,1207.5,67.4
		L1207.5,67.4z"/>
	<g id="XMLID_22_">
		<path id="XMLID_29_" class="st5" d="M230.5,86.5c2.8,0,5,2.2,5,5s-2.2,5-5,5s-5-2.2-5-5S227.8,86.5,230.5,86.5 M230.5,85.5
			c-3.3,0-6,2.7-6,6s2.7,6,6,6s6-2.7,6-6S233.8,85.5,230.5,85.5L230.5,85.5z"/>
		<path id="XMLID_26_" class="st6" d="M250.5,86.5c2.8,0,5,2.2,5,5s-2.2,5-5,5c-2.8,0-5-2.2-5-5C245.5,88.7,247.8,86.5,250.5,86.5
			 M250.5,85.5c-3.3,0-6,2.7-6,6s2.7,6,6,6c3.3,0,6-2.7,6-6S253.8,85.5,250.5,85.5L250.5,85.5z"/>
		<path id="XMLID_23_" class="st7" d="M270.5,86.5c2.8,0,5,2.2,5,5s-2.2,5-5,5s-5-2.2-5-5S267.8,86.5,270.5,86.5 M270.5,85.5
			c-3.3,0-6,2.7-6,6s2.7,6,6,6s6-2.7,6-6S273.8,85.5,270.5,85.5L270.5,85.5z"/>
	</g>
	<rect id="XMLID_21_" x="212.2" y="143.3" class="st3" width="998.2" height="1"/>
	<rect id="XMLID_20_" x="212.2" y="107.4" class="st3" width="73.2" height="1"/>
	<rect id="XMLID_19_" x="493.5" y="107.4" class="st3" width="717" height="1"/>
	<path id="XMLID_18_" class="st3" d="M493.5,108.4c-2.7,0-3.8-3-6-8.9c-0.4-1.2-0.9-2.5-1.5-4c-3.3-8.6-4.6-11.1-7.6-11.1h-178
		c-2.9,0-4.3,2.5-7.6,11.1c-0.6,1.5-1,2.8-1.5,4c-2.1,5.9-3.1,8.9-5.8,8.9v-1c2,0,3-2.8,5-8.3c0.4-1.2,0.9-2.6,1.5-4
		c3.2-8.5,4.7-11.7,8.5-11.7h178c3.7,0,5.3,3.2,8.5,11.7c0.6,1.5,1,2.8,1.5,4c2,5.5,3,8.3,5,8.3V108.4z"/>
	<path id="XMLID_12_" class="st3" d="M1170.4,113.4c1.1,0,2,0.9,2,2v21c0,1.1-0.9,2-2,2H307.5c-1.1,0-2-0.9-2-2v-21c0-1.1,0.9-2,2-2
		H1170.4 M1170.4,112.4H307.5c-1.7,0-3,1.3-3,3v21c0,1.7,1.3,3,3,3h862.9c1.7,0,3-1.3,3-3v-21C1173.4,113.8,1172,112.4,1170.4,112.4
		L1170.4,112.4z"/>
	<path id="XMLID_8_" class="st3" d="M514.7,87.9c1.6,0,2.5,1.3,2.9,2.3l3.7,9.6c0.3,0.8,0.4,1.4,0.2,1.8c-0.2,0.2-0.4,0.3-0.7,0.3
		h-22c-1.5,0-2-0.7-2.3-1.4l-4.4-10.9c-0.2-0.5-0.2-0.9,0.1-1.2c0.2-0.3,0.6-0.5,0.9-0.5L514.7,87.9 M514.7,86.9h-21.6
		c-1.1,0-2.7,1.2-1.9,3.1l4.4,10.9c0.4,1.1,1.2,2,3.2,2h22c1.1,0,2.5-0.9,1.4-3.5l-3.7-9.6C518,88.4,516.8,86.9,514.7,86.9
		L514.7,86.9z"/>
	<g id="XMLID_3_">
		<path id="XMLID_13_" class="st8" d="M1165.7,123.4L1165.7,123.4"/>
	</g>
</g>
</svg>
