<?xml version="1.0" encoding="utf-8"?>
<!-- Generator: Adobe Illustrator 19.0.0, SVG Export Plug-In . SVG Version: 6.00 Build 0)  -->
<svg version="1.1" id="Capa_1" xmlns="http://www.w3.org/2000/svg" xmlns:xlink="http://www.w3.org/1999/xlink" x="0px" y="0px"
	 viewBox="-191 314.9 213 213" style="enable-background:new -191 314.9 213 213;" xml:space="preserve">
<style type="text/css">
	.st0{fill:#1F2A37;}
</style>
<g id="Close">
	<path class="st0" d="M-59.2,421.4l75.9-75.9c7-7,7-18.3,0-25.3c-7-7-18.3-7-25.3,0l-75.9,75.9l-75.9-75.9c-7-7-18.3-7-25.3,0
		c-7,7-7,18.3,0,25.3l75.9,75.9l-75.9,75.9c-7,7-7,18.3,0,25.3c7,7,18.3,7,25.3,0l75.9-75.9l75.9,75.9c7,7,18.3,7,25.3,0
		c7-7,7-18.3,0-25.3L-59.2,421.4z"/>
</g>
</svg>
