<?xml version="1.0" encoding="utf-8"?>
<!-- Generator: Adobe Illustrator 19.0.0, SVG Export Plug-In . SVG Version: 6.00 Build 0)  -->
<svg version="1.1" id="Layer_1" xmlns="http://www.w3.org/2000/svg" xmlns:xlink="http://www.w3.org/1999/xlink" x="0px" y="0px"
	 viewBox="0 0 725.1 1063.9" style="enable-background:new 0 0 725.1 1063.9;" xml:space="preserve">
<style type="text/css">
	.st0{fill:#202A37;}
</style>
<g id="XMLID_2_">
	<g id="XMLID_3_">
		<path id="XMLID_16_" class="st0" d="M664.3,8.8H63.7c-30.4,0-53.4,23-53.4,53.4v940.2c0,30.4,23,53.4,53.4,53.4h600.7
			c30.4,0,53.4-23,53.4-53.4V62.2C717.7,31.7,694.8,8.8,664.3,8.8z M713.7,1002.4c0,28.2-21.2,49.4-49.4,49.4H63.7
			c-28.2,0-49.4-21.2-49.4-49.4V62.2c0-28.2,21.2-49.4,49.4-49.4h600.7c28.2,0,49.4,21.2,49.4,49.4V1002.4z"/>
		<path id="XMLID_13_" class="st0" d="M664.3,17.5h-37.9H101.5H63.7C51.3,17.5,40,22,31.8,30.2C23.5,38.4,19,49.7,19,62.2v940.2
			c0,12.5,4.5,23.8,12.8,32c8.2,8.1,19.5,12.6,31.9,12.6h37.9h524.9h37.9c12.4,0,23.7-4.5,31.9-12.6c8.2-8.2,12.8-19.5,12.8-32V62.2
			c0-12.5-4.5-23.8-12.8-32C688,22,676.7,17.5,664.3,17.5z M705,1002.4c0,11.4-4.1,21.7-11.6,29.2c-7.4,7.4-17.8,11.5-29.1,11.5
			h-37.9H101.5H63.7c-11.3,0-21.6-4.1-29.1-11.5c-7.5-7.4-11.6-17.8-11.6-29.2V62.2c0-11.4,4.1-21.7,11.6-29.2
			c7.4-7.4,17.8-11.5,29.1-11.5h37.9h524.9h37.9c11.3,0,21.6,4.1,29.1,11.5c7.5,7.4,11.6,17.8,11.6,29.2V1002.4z"/>
		<path id="XMLID_10_" class="st0" d="M363.8,73.8c3.9,0,7-3.1,7-7c0-3.9-3.1-7-7-7c-3.9,0-7,3.1-7,7
			C356.8,70.7,359.9,73.8,363.8,73.8z M363.8,62.8c2.2,0,4,1.8,4,4c0,2.2-1.8,4-4,4c-2.2,0-4-1.8-4-4
			C359.8,64.6,361.6,62.8,363.8,62.8z"/>
		<path id="XMLID_7_" class="st0" d="M363.6,977.9c-14.3,0-25.8,11.6-25.8,25.8c0,14.3,11.6,25.8,25.8,25.8
			c14.3,0,25.8-11.6,25.8-25.8C389.5,989.5,377.9,977.9,363.6,977.9z M363.6,1025.6c-12,0-21.8-9.8-21.8-21.8s9.8-21.8,21.8-21.8
			c12,0,21.8,9.8,21.8,21.8S375.7,1025.6,363.6,1025.6z"/>
		<path id="XMLID_4_" class="st0" d="M675,111.8H53c-2.8,0-5,2.2-5,5v830c0,2.8,2.2,5,5,5h622c2.8,0,5-2.2,5-5v-830
			C680,114,677.7,111.8,675,111.8z M675,946.8H53v-830h622V946.8z"/>
	</g>
</g>
</svg>
