<?xml version="1.0" encoding="utf-8"?>
<!-- Generator: Adobe Illustrator 19.0.0, SVG Export Plug-In . SVG Version: 6.00 Build 0)  -->
<svg version="1.1" id="Layer_1" xmlns="http://www.w3.org/2000/svg" xmlns:xlink="http://www.w3.org/1999/xlink" x="0px" y="0px"
	 viewBox="0 0 399.1 833.7" style="enable-background:new 0 0 399.1 833.7;" xml:space="preserve">
<style type="text/css">
	.st0{fill:#202A37;}
</style>
<g id="XMLID_2_">
	<g id="XMLID_3_">
		<path id="XMLID_17_" class="st0" d="M372.8,36c-11-11-25.5-17-41.1-17h-4.9v-2v-1.5l-1.2-0.9l-2-1.5l-0.8-0.6h-1h-56.4h-0.8
			L264,13l-2.6,1.5l-1.5,0.9v1.7v2H66.9c-15.5,0-30.1,6-41.1,17c-11,11-17,25.5-17,41v50.5h-1H6.6l-0.9,0.9l-1.5,1.5l-0.9,0.9v1.2
			v33.5v1.2l0.9,0.9l1.5,1.5l0.9,0.9h1.2h1v33h-1H6.6l-0.9,0.9l-1.5,1.5l-0.9,0.9v1.2v25v1.2l0.9,0.9l1.5,1.5l0.9,0.9h1.2h1v32.5h-1
			H6.6l-0.9,0.9l-1.5,1.5l-0.9,0.9v1.2v25v1.2l0.9,0.9l1.5,1.5l0.9,0.9h1.2h1v457.5c0,15.5,6,30.1,17,41c11,11,25.5,17,41.1,17
			h264.9c15.5,0,30.1-6,41.1-17c11-11,17-25.5,17-41v-684C389.8,61.6,383.8,47,372.8,36z M262.8,17.1l2.6-1.5h56.4l2,1.5v2h-61V17.1
			z M28.7,38.9c10.2-10.2,23.8-15.8,38.2-15.8h264.9c14.4,0,28,5.6,38.2,15.8s15.8,23.8,15.8,38.2v12.5h-4V77
			c0-27.6-22.4-50-50.1-50H66.9c-27.7,0-50.1,22.4-50.1,50v12.5h-4V77.1C12.8,62.6,18.5,49.1,28.7,38.9z M385.8,95.6v647.5h-4V95.6
			H385.8z M377.8,77v684c0,25.4-20.7,46-46.1,46H66.9c-25.4,0-46.1-20.6-46.1-46V77c0-25.4,20.7-46,46.1-46h264.9
			C357.2,31,377.8,51.7,377.8,77z M12.8,303.6v-3v-28v-3v-32.5v-3v-28v-3v-33v-3v-36.5v-3v-32h4v647.5h-4V303.6z M7.8,167.1
			l-1.5-1.5v-33.5c0.4-0.4,0.8-0.8,1.5-1.5h1v36.5H7.8z M7.8,234.1l-1.5-1.5v-25c0.4-0.4,0.8-0.8,1.5-1.5h1v28H7.8z M7.8,300.6
			l-1.5-1.5v-25c0.4-0.4,0.8-0.8,1.5-1.5h1v28H7.8z M370,799.2c-10.2,10.2-23.8,15.8-38.2,15.8H66.9c-14.4,0-28-5.6-38.2-15.8
			c-10.2-10.2-15.8-23.8-15.8-38.2v-12h4v12c0,27.6,22.4,50,50.1,50h264.9c27.7,0,50.1-22.4,50.1-50v-12h4v12
			C385.8,775.5,380.2,789,370,799.2z"/>
		<path id="XMLID_14_" class="st0" d="M170.8,97.6h55c4.1,0,7.5-3.4,7.5-7.5c0-4.1-3.4-7.5-7.5-7.5h-55c-4.1,0-7.5,3.4-7.5,7.5
			C163.3,94.2,166.7,97.6,170.8,97.6z M170.8,86.6h55c1.9,0,3.5,1.6,3.5,3.5c0,1.9-1.6,3.5-3.5,3.5h-55c-1.9,0-3.5-1.6-3.5-3.5
			C167.3,88.1,168.9,86.6,170.8,86.6z"/>
		<path id="XMLID_11_" class="st0" d="M358.8,131.1h-320c-2.2,0-4,1.8-4,4v568c0,2.2,1.8,4,4,4h320c2.2,0,4-1.8,4-4v-568
			C362.8,132.8,361,131.1,358.8,131.1z M358.8,703.1h-320v-568h320V703.1z"/>
		<path id="XMLID_8_" class="st0" d="M199.1,725.1c-18.6,0-33.8,15.1-33.8,33.8c0,18.6,15.1,33.8,33.8,33.8
			c18.6,0,33.8-15.1,33.8-33.8C232.8,740.2,217.7,725.1,199.1,725.1z M199.1,788.6c-16.4,0-29.8-13.3-29.8-29.8s13.3-29.8,29.8-29.8
			s29.8,13.3,29.8,29.8S215.5,788.6,199.1,788.6z"/>
		<path id="XMLID_5_" class="st0" d="M198.8,68.4c4.7,0,8.5-3.8,8.5-8.5c0-4.7-3.8-8.5-8.5-8.5c-4.7,0-8.5,3.8-8.5,8.5
			C190.3,64.6,194.2,68.4,198.8,68.4z M198.8,54.4c3,0,5.5,2.5,5.5,5.5c0,3-2.5,5.5-5.5,5.5c-3,0-5.5-2.5-5.5-5.5
			C193.3,56.8,195.8,54.4,198.8,54.4z"/>
		<circle id="XMLID_4_" class="st0" cx="198.8" cy="59.7" r="3"/>
	</g>
</g>
</svg>
