<?xml version="1.0" encoding="utf-8"?>
<!-- Generator: Adobe Illustrator 19.0.0, SVG Export Plug-In . SVG Version: 6.00 Build 0)  -->
<svg version="1.1" id="Layer_1" xmlns="http://www.w3.org/2000/svg" xmlns:xlink="http://www.w3.org/1999/xlink" x="0px" y="0px"
	 viewBox="-29 155.2 536 531.7" style="enable-background:new -29 155.2 536 531.7;" xml:space="preserve">
<style type="text/css">
	.st0{fill:#913E55;}
	.st1{enable-background:new    ;}
	.st2{fill:#FFFFFF;}
</style>
<g id="Layer_2">
</g>
<g id="Layer_3">
	<circle id="XMLID_1_" class="st0" cx="239" cy="421.1" r="256"/>
	<g class="st1">
		<path class="st2" d="M350.2,437c-21.2,12.7-34.4,83.5-45.3,100.4c-10.9,17-30.2,14.3-37.4-10.9c-7.2-25.2-7.2-158.2-6.9-176.7
			c-0.3-24.1-2.6-40.5-13-29.9c-21.7,22-40.3,130.6-46.9,169.6l-0.3,2.7c-1.9,16.4-0.8,25.7-8.7,26.8c-7.9,1.1-13.2-3.4-12.7-13
			c0.5-9.5,3.7-65.4,2.4-98.3c-1.3-32.3-2.6-56.7-4.5-70.7c0-4.2-7.2,5.3-9.3,6.9c-5.3,6.1-35,40.8-49.5,27
			c-6.9-6.6-5.8-17.8-2.4-21.7c8.5-9.8,15.1,0.8,10.3,5.8c-2.6,2.9-2.9,8.5-0.8,10.6c10.6,11.9,43.5-31.5,50.1-42.9
			c5-8.5,13.8-6.6,16.2-4c2.4,2.6,2.1,8.5,2.9,16.2c1.9,16.4,4.5,50.9,5,73.1c0.3,10.3,0.8,22.5,1.1,34.4
			c8.2-41.9,23.1-108.9,39.5-130.9c12.2-16.7,33.9-13.2,39.5,10.6c5.6,23.8-0.3,178.6,5.3,198.5c5.6,19.9,8.2,21.2,16.2,7.7
			s22.8-81.6,44.8-98c13-9.5,18.5-9.3,19.1-4.5C365.6,431.2,363,429.3,350.2,437z"/>
	</g>
</g>
<g id="Layer_4">
</g>
</svg>
